<svg width="33" height="33" viewBox="0 0 33 33" fill="none" xmlns="http://www.w3.org/2000/svg">
<path d="M28.655 6.3387C27.9528 5.63608 27.1189 5.07871 26.2012 4.69844C25.2834 4.31816 24.2997 4.12244 23.3063 4.12244C22.3129 4.12244 21.3292 4.31816 20.4114 4.69844C19.4937 5.07871 18.6598 5.63608 17.9575 6.3387L16.5 7.7962L15.0425 6.3387C13.624 4.92012 11.7 4.12317 9.69379 4.12317C7.68762 4.12317 5.76362 4.92012 4.34504 6.3387C2.92646 7.75727 2.12952 9.68128 2.12952 11.6874C2.12952 13.6936 2.92646 15.6176 4.34504 17.0362L16.5 29.1912L28.655 17.0362C29.3577 16.3339 29.915 15.5001 30.2953 14.5823C30.6756 13.6646 30.8713 12.6809 30.8713 11.6874C30.8713 10.694 30.6756 9.71034 30.2953 8.79258C29.915 7.87483 29.3577 7.04099 28.655 6.3387Z" stroke="#1E1E1E" stroke-width="4" stroke-linecap="round" stroke-linejoin="round"/>
</svg>
